<?xml version="1.0" standalone="no"?>
<!DOCTYPE svg PUBLIC "-//W3C//DTD SVG 20010904//EN"
 "http://www.w3.org/TR/2001/REC-SVG-20010904/DTD/svg10.dtd">
<svg version="1.0" xmlns="http://www.w3.org/2000/svg"
 width="933.000000pt" height="948.000000pt" viewBox="0 0 933.000000 948.000000"
 preserveAspectRatio="xMidYMid meet">

<g transform="translate(0.000000,948.000000) scale(0.100000,-0.100000)"
fill="#000000" stroke="none">
<path d="M4295 8849 c-1081 -72 -2093 -531 -2845 -1289 -584 -590 -993 -1376
-1129 -2170 -43 -253 -55 -404 -55 -695 0 -300 12 -447 59 -716 140 -796 525
-1535 1120 -2147 576 -594 1374 -1031 2204 -1206 l112 -24 126 129 c70 72 133
138 140 148 12 18 15 18 74 -6 61 -25 89 -26 166 -6 19 4 43 -14 130 -99 60
-57 129 -120 154 -141 25 -20 52 -49 60 -64 27 -54 24 -53 241 -53 l203 0 42
68 c24 37 75 104 115 150 79 92 89 93 103 11 4 -21 10 -39 15 -39 4 0 35 25
69 55 34 30 70 55 80 55 31 0 85 -71 116 -152 17 -43 35 -78 40 -78 33 0 167
111 209 174 55 83 70 150 62 279 -6 88 -5 107 6 101 7 -4 34 -23 61 -42 l47
-34 0 52 c0 44 2 51 18 46 9 -2 44 -10 77 -16 96 -19 171 -65 360 -218 43 -34
79 -61 80 -60 4 5 -23 184 -64 416 -43 246 -62 305 -152 484 -45 90 -45 92 30
136 39 22 56 26 118 25 77 -1 76 0 167 -72 83 -66 187 -79 274 -33 l40 20 50
-106 c28 -59 67 -145 87 -192 54 -123 136 -293 140 -289 2 2 20 63 40 134 66
231 117 390 130 403 10 11 21 9 61 -11 27 -13 66 -30 86 -36 42 -14 31 -1 238
-274 85 -113 158 -202 161 -199 4 4 18 75 33 157 28 156 34 181 41 174 2 -3
43 -146 90 -319 48 -173 91 -322 95 -330 9 -15 15 -3 182 358 l71 152 53 0
c49 0 53 2 58 27 11 51 44 257 51 316 6 55 9 60 53 90 92 64 146 113 166 152
12 22 47 65 78 95 87 86 98 169 47 378 -20 84 -21 98 -9 140 22 78 27 147 14
209 -7 32 -10 85 -7 118 4 49 -1 77 -25 153 l-30 93 59 29 c48 25 59 35 59 55
0 36 -47 160 -91 241 -22 39 -39 73 -39 76 0 2 20 19 44 36 92 66 114 196 62
357 -14 44 -30 86 -35 94 -6 10 -3 27 9 51 31 60 33 98 10 193 l-20 89 22 31
c18 26 24 49 27 114 3 71 -2 99 -33 205 -28 98 -35 134 -30 170 6 46 6 46 38
37 17 -5 32 -9 33 -9 23 0 -140 322 -256 505 -154 241 -267 372 -416 483 -33
24 -59 49 -57 56 2 6 23 38 47 72 70 97 155 267 177 351 28 108 35 295 14 392
-28 131 -101 226 -196 251 -47 13 -127 15 -191 5 l-46 -7 -69 89 c-489 627
-1174 1120 -1940 1398 -550 200 -1219 293 -1809 254z m865 -587 l245 -27 -3
-45 c-6 -84 -5 -83 -86 -76 -39 4 -124 12 -188 19 l-117 13 -6 -55 c-3 -31 -8
-66 -11 -78 -2 -13 -2 -23 0 -23 10 0 285 -30 325 -36 l44 -6 -6 -60 c-3 -33
-7 -61 -9 -63 -2 -2 -84 5 -183 16 -128 14 -181 16 -186 8 -6 -11 -22 -150
-17 -155 2 -1 83 -10 181 -20 98 -10 182 -21 187 -24 6 -4 7 -30 2 -66 l-7
-59 -35 3 c-73 6 -504 53 -505 55 -1 1 17 161 39 355 l41 352 25 -1 c14 0 135
-12 270 -27z m-612 2 c125 -41 188 -188 133 -311 -17 -37 -78 -93 -114 -106
-7 -2 28 -56 82 -127 101 -132 103 -139 26 -140 -22 0 -56 -2 -75 -5 -35 -5
-35 -5 -120 115 l-85 120 -50 0 c-79 0 -79 0 -66 -135 6 -65 9 -120 7 -123 -5
-4 -147 -21 -153 -18 -4 3 -67 706 -63 710 6 5 305 33 376 35 29 0 74 -6 102
-15z m-648 -117 c10 -31 15 -59 11 -61 -3 -2 -80 -25 -171 -50 -91 -26 -170
-49 -177 -51 -8 -3 -5 -24 11 -77 19 -61 26 -72 42 -70 10 2 89 23 174 48 85
24 158 44 162 44 12 0 41 -111 32 -120 -5 -4 -83 -29 -174 -55 -91 -26 -167
-48 -168 -50 -8 -8 42 -155 52 -155 6 0 89 22 185 50 96 27 175 49 176 47 7
-13 36 -119 33 -122 -10 -9 -511 -146 -516 -141 -12 13 -211 671 -204 677 9 9
494 148 506 145 5 -1 16 -28 26 -59z m2073 -57 c70 -26 130 -71 174 -128 30
-39 62 -117 52 -126 -2 -2 -36 -6 -76 -10 l-71 -7 -11 34 c-14 42 -64 91 -115
112 -48 20 -142 21 -188 2 -157 -66 -199 -285 -76 -393 76 -67 189 -82 268
-35 l35 20 55 -49 c53 -47 54 -49 35 -64 -107 -84 -259 -94 -402 -27 -188 88
-273 282 -204 463 40 105 149 200 258 228 60 15 200 5 266 -20z m-2783 -185
c78 -41 115 -157 71 -230 -25 -44 -26 -47 -3 -44 47 4 82 -3 119 -28 103 -67
115 -206 25 -290 -25 -23 -430 -239 -436 -232 -12 15 -347 632 -344 634 12 11
381 191 413 201 46 16 113 11 155 -11z m-496 -587 c119 -156 216 -285 216
-289 0 -5 -115 -89 -123 -89 -5 0 -431 557 -435 570 -3 8 105 90 119 90 4 0
105 -127 223 -282z m-484 -308 l205 -211 115 105 c63 58 120 105 125 105 6 0
28 -20 49 -45 38 -45 38 -46 20 -64 -10 -11 -89 -82 -174 -159 l-155 -140
-243 242 c-134 133 -248 251 -254 261 -9 17 -3 27 40 68 28 26 54 48 59 48 4
0 100 -94 213 -210z m2485 55 c-33 -20 -91 -61 -129 -91 -83 -67 -232 -155
-326 -194 -97 -40 -139 -72 -266 -202 -90 -91 -120 -129 -152 -193 -22 -44
-59 -98 -82 -120 -58 -56 -93 -109 -120 -183 -13 -35 -36 -80 -53 -100 -16
-20 -53 -87 -82 -149 -41 -86 -60 -115 -83 -127 -65 -33 -147 -161 -162 -249
-5 -30 -25 -90 -45 -133 -38 -81 -85 -244 -85 -295 0 -16 -9 -51 -20 -79 -12
-31 -20 -74 -20 -110 0 -33 -4 -60 -9 -60 -25 0 -131 -115 -164 -178 -20 -38
-68 -109 -108 -158 -84 -105 -103 -139 -119 -217 -13 -65 -4 -158 30 -314 11
-48 20 -122 20 -164 0 -78 18 -157 52 -222 10 -21 28 -72 38 -112 36 -139 99
-229 197 -278 26 -14 100 -37 163 -51 l115 -27 33 -49 c19 -27 49 -61 68 -75
33 -25 34 -28 34 -99 0 -77 -25 -235 -40 -250 -20 -21 -352 205 -500 341 -519
476 -791 1083 -792 1763 0 96 5 216 12 265 102 813 597 1506 1339 1875 224
111 438 183 670 225 184 34 276 42 476 44 l170 1 -60 -35z m2275 -90 c165 -31
329 -81 415 -129 85 -47 83 -56 -17 -56 -78 0 -96 4 -259 64 -95 35 -225 80
-286 100 -62 21 -116 42 -119 48 -10 15 86 5 266 -27z m-1125 -5 c83 -14 115
-32 115 -64 0 -32 -37 -76 -63 -76 -13 0 -65 21 -117 48 -52 26 -106 52 -120
57 -14 6 -25 17 -25 25 0 31 66 34 210 10z m706 -24 c70 -15 117 -36 209 -92
54 -33 79 -39 252 -60 49 -5 132 -53 152 -87 9 -15 6 -23 -17 -43 -36 -31 -75
-31 -118 2 -19 15 -65 41 -104 59 -38 18 -101 51 -140 74 -38 22 -85 44 -105
47 -19 3 -66 15 -105 26 -100 28 -286 35 -394 14 -47 -8 -87 -14 -89 -12 -5 6
82 43 132 57 40 11 154 25 226 27 19 1 65 -5 101 -12z m1669 -113 c0 -61 -26
-203 -50 -273 -49 -144 -156 -316 -229 -366 -69 -47 -155 -24 -191 51 -28 57
-45 225 -31 310 12 81 25 102 99 160 56 45 102 63 213 85 31 6 76 24 100 40
24 15 54 29 67 29 19 1 22 -4 22 -36z m-2832 -2 c26 -10 79 -30 117 -45 71
-27 124 -60 114 -70 -10 -11 -292 45 -329 65 -19 10 -53 25 -75 34 -31 12 -36
18 -25 25 27 17 148 11 198 -9z m1038 -37 c77 -30 97 -34 144 -29 65 6 122 -8
260 -67 137 -59 143 -68 44 -68 -53 0 -112 8 -177 25 -54 14 -121 30 -150 35
-28 6 -78 21 -112 35 -33 13 -96 28 -140 34 -86 11 -115 18 -115 31 0 12 23
28 50 33 66 12 110 6 196 -29z m-1389 -60 c2 -6 -39 -17 -106 -27 -122 -19
-309 -81 -459 -154 -110 -53 -224 -132 -305 -211 -84 -82 -214 -253 -190 -251
4 0 40 20 78 45 70 45 386 204 520 262 39 16 96 35 128 42 82 16 276 17 316 1
58 -24 43 -32 -99 -51 -162 -21 -349 -81 -626 -200 -136 -59 -201 -99 -294
-184 -97 -89 -177 -111 -188 -52 -6 30 54 142 92 171 19 15 46 44 58 65 70
117 181 271 225 311 69 64 90 74 302 135 102 29 207 62 232 73 26 12 71 25
100 30 72 12 211 9 216 -5z m171 -100 c111 -28 142 -44 142 -75 0 -23 -37 -49
-72 -49 -34 0 -260 70 -317 99 -33 17 -20 29 41 39 93 14 90 14 206 -14z
m1032 -29 c207 -34 333 -78 529 -185 58 -32 127 -64 154 -70 56 -15 58 -25 22
-102 -16 -33 -25 -71 -25 -102 0 -44 4 -53 39 -86 26 -25 61 -44 109 -59 76
-25 112 -22 112 10 0 23 20 24 63 3 67 -34 96 -63 102 -102 14 -86 32 -96 115
-67 58 20 106 19 160 -6 45 -20 90 -56 90 -71 0 -4 -11 -8 -24 -8 -14 0 -27
-3 -30 -8 -9 -15 24 -70 89 -142 77 -86 135 -180 135 -217 0 -22 -3 -24 -25
-19 -42 11 -40 -17 4 -100 53 -97 53 -109 5 -89 l-37 15 7 -51 c7 -51 7 -51
-18 -45 -14 3 -27 2 -31 -4 -8 -12 42 -182 71 -245 13 -27 42 -81 64 -120 46
-81 51 -104 18 -81 -27 19 -79 21 -96 4 -26 -26 -10 -90 40 -160 9 -12 29 -54
43 -92 23 -61 24 -68 8 -61 -10 4 -28 10 -40 12 -29 7 -30 -14 -3 -92 11 -32
19 -60 17 -61 -2 -2 -18 2 -36 9 -46 17 -57 -5 -25 -53 27 -41 55 -130 73
-235 7 -38 19 -108 28 -154 16 -86 16 -303 0 -328 -6 -9 -16 -8 -41 4 -56 26
-70 14 -64 -62 5 -52 17 -88 66 -190 69 -142 66 -161 -13 -101 -25 20 -58 36
-72 36 -25 0 -26 -1 -20 -62 3 -35 9 -73 13 -86 6 -20 4 -22 -18 -13 -35 13
-49 0 -55 -52 -5 -43 -7 -45 -28 -37 -27 10 -40 -1 -50 -43 -4 -15 -9 -27 -11
-27 -2 0 -31 20 -65 45 -78 58 -95 58 -104 3 -11 -65 -37 -108 -115 -189 l-72
-74 -20 28 c-11 15 -24 25 -29 21 -5 -3 -41 -71 -80 -151 -58 -120 -80 -155
-127 -202 -67 -67 -159 -115 -254 -132 l-67 -12 -56 34 c-31 19 -74 49 -95 66
-21 18 -50 37 -65 43 -38 14 -110 12 -150 -4 -84 -35 -217 -202 -250 -312 -9
-33 -24 -78 -32 -102 -15 -42 -14 -44 10 -80 14 -20 36 -59 48 -87 11 -27 36
-85 55 -127 18 -43 31 -78 29 -78 -2 0 -28 33 -58 73 -61 83 -116 134 -153
143 -43 11 -147 -2 -190 -24 -88 -45 -96 -105 -29 -229 25 -46 42 -83 38 -83
-5 0 -34 16 -66 35 -68 41 -79 43 -72 12 18 -79 25 -114 25 -129 0 -28 -31
-21 -66 13 l-32 31 8 -39 c3 -21 16 -57 28 -80 30 -58 52 -155 52 -234 0 -66
-15 -129 -30 -129 -4 0 -14 24 -20 53 -7 28 -16 57 -20 62 -5 6 -21 42 -36 80
-31 79 -49 105 -74 105 -21 0 -35 -16 -45 -50 -8 -29 -52 -90 -64 -90 -5 0
-16 30 -25 66 -16 69 -34 101 -46 87 -4 -4 -20 -41 -35 -80 -14 -40 -31 -76
-37 -79 -25 -16 -38 30 -38 133 0 57 -4 103 -8 103 -5 0 -27 -9 -49 -20 -23
-11 -76 -29 -120 -41 -128 -35 -198 -72 -262 -138 l-58 -59 -13 55 c-16 66
-68 172 -92 187 -14 8 -22 6 -40 -11 -20 -20 -23 -39 -33 -170 l-10 -148 -28
28 c-40 39 -72 117 -97 237 -34 167 -54 169 -152 15 -37 -58 -71 -105 -77
-105 -5 0 -6 29 -3 67 4 56 2 68 -13 80 -33 23 -79 16 -126 -22 -29 -22 -47
-31 -54 -24 -5 5 -11 40 -13 77 -3 54 1 80 22 136 14 37 26 70 26 72 0 15 -44
-3 -90 -36 l-55 -40 -6 167 c-3 93 -11 180 -17 196 -16 38 -38 44 -67 17 -20
-19 -27 -21 -40 -10 -31 26 -10 131 52 254 25 49 58 92 110 143 120 117 88
127 -105 33 -68 -33 -125 -60 -127 -60 -2 0 3 20 13 45 9 24 13 47 9 51 -3 3
-34 -17 -69 -46 -34 -29 -64 -48 -65 -43 -2 5 22 70 53 144 39 93 68 147 95
176 68 74 42 73 -72 -2 -46 -30 -85 -50 -87 -46 -4 12 37 171 51 196 6 11 14
89 17 174 l5 155 55 -47 c76 -65 142 -108 160 -105 21 4 25 45 6 73 -15 22
-56 135 -56 153 0 5 10 21 21 36 l21 27 25 -35 c13 -20 27 -36 32 -36 4 0 18
11 31 25 13 14 26 25 30 25 4 0 12 -11 18 -25 14 -31 29 -32 58 -4 l23 21 26
-28 25 -29 25 30 c24 29 25 29 39 10 9 -11 16 -23 16 -27 0 -5 8 -8 19 -8 11
0 23 12 31 30 14 34 25 38 39 13 12 -25 35 -391 28 -461 -8 -76 -31 -151 -60
-186 l-24 -30 -38 24 c-21 13 -65 46 -97 73 -66 55 -91 57 -96 11 -4 -42 36
-123 102 -209 54 -69 54 -70 40 -103 -8 -19 -14 -50 -14 -68 0 -29 7 -39 50
-71 38 -29 52 -48 61 -80 13 -47 15 -49 43 -28 11 8 39 15 62 15 50 0 90 -34
100 -86 l6 -35 53 58 53 58 12 -30 c6 -16 10 -49 7 -72 -2 -24 -1 -43 4 -43 5
0 9 4 9 9 0 14 65 51 89 51 23 0 63 -35 92 -80 l16 -24 13 39 c7 22 19 55 28
74 15 32 17 33 60 28 24 -3 57 -14 73 -26 34 -25 39 -26 39 -6 0 20 26 19 96
-6 103 -35 98 -35 85 -11 -17 32 -14 35 34 29 57 -6 77 -23 107 -93 12 -29 27
-52 33 -51 5 2 13 22 17 44 8 51 44 122 64 130 17 6 48 -8 134 -62 56 -36 104
-44 142 -24 57 30 105 250 128 581 9 134 12 144 89 375 43 131 86 272 96 313
23 105 63 225 95 290 44 87 56 165 36 232 -9 31 -23 61 -31 68 -23 19 -19 31
29 85 50 57 106 163 106 199 0 28 -23 56 -48 57 -9 0 -85 4 -167 8 l-151 7
-85 52 c-100 60 -120 79 -98 93 8 5 24 9 37 9 32 0 28 11 -24 69 -32 35 -41
51 -29 51 18 0 96 -48 171 -105 49 -37 49 -37 124 -31 160 13 319 19 343 12
l26 -6 -20 -57 c-33 -97 -30 -108 61 -194 l80 -76 -16 -39 c-9 -21 -22 -46
-29 -54 -7 -8 -22 -38 -33 -65 l-20 -51 44 -59 c54 -72 97 -157 92 -182 -2
-14 -15 -19 -63 -23 -87 -7 -83 -24 20 -94 100 -68 123 -96 108 -129 -8 -18
-7 -28 8 -46 33 -40 23 -82 -21 -96 -46 -14 -62 -35 -55 -75 5 -28 1 -42 -15
-63 -14 -18 -23 -46 -26 -87 -5 -73 -26 -128 -51 -136 -10 -3 -40 -17 -68 -30
-42 -20 -55 -32 -80 -81 -28 -54 -34 -60 -93 -83 -58 -23 -70 -33 -129 -110
-100 -131 -107 -148 -109 -264 -2 -155 15 -185 70 -127 27 28 30 38 35 129 5
85 10 104 34 140 15 23 49 58 75 77 58 42 264 145 352 176 68 23 106 50 116
81 3 10 11 18 17 18 19 0 140 -95 165 -129 23 -32 55 -40 68 -19 8 12 16 148
17 288 1 79 -23 132 -83 182 -35 29 -44 44 -61 108 -26 99 -27 194 -4 220 27
30 56 24 104 -19 24 -22 70 -54 103 -71 55 -30 60 -31 83 -16 13 8 26 29 30
45 8 38 71 95 94 86 38 -16 49 -15 78 9 20 17 35 42 42 72 18 71 38 103 76
121 34 16 36 16 93 -14 41 -22 63 -28 74 -22 41 23 65 198 44 313 l-7 39 30
-6 c17 -4 55 -18 85 -32 29 -14 56 -25 59 -25 13 0 7 45 -19 128 -14 46 -23
86 -21 89 3 2 28 -7 56 -21 28 -14 55 -26 60 -26 21 0 -6 45 -80 134 -66 79
-86 112 -119 195 -44 110 -48 131 -25 131 23 0 18 21 -20 84 -19 32 -35 65
-35 72 0 8 16 46 35 84 23 45 35 84 35 110 l0 40 50 0 c28 0 50 4 50 8 0 5
-12 19 -26 33 -35 32 -56 76 -49 99 3 10 17 25 30 34 53 35 24 56 -76 56 -71
0 -84 14 -83 86 2 53 0 55 -67 133 -38 44 -69 87 -69 95 0 9 26 28 61 46 77
38 119 68 119 84 0 15 -23 25 -126 55 -39 11 -76 27 -82 34 -17 21 21 76 58
84 17 3 30 9 30 14 0 5 -45 31 -99 59 -55 27 -102 54 -106 59 -3 6 11 13 30
17 20 3 34 11 32 18 -7 20 -69 55 -138 78 -56 18 -68 25 -66 42 2 16 -16 31
-78 66 -66 38 -85 54 -106 94 -15 27 -55 82 -89 123 -34 41 -82 105 -107 141
-55 81 -93 123 -155 168 -67 50 -139 72 -287 89 -122 13 -134 16 -213 59 l-83
46 100 0 c55 0 143 -7 195 -15z m-4480 -230 c170 -99 310 -183 310 -187 0 -6
-62 -110 -76 -126 -4 -5 -633 362 -634 370 0 13 75 128 82 125 4 -1 147 -83
318 -182z m4380 -18 c0 -18 84 -223 98 -239 9 -11 23 -16 36 -13 17 4 27 -5
49 -41 36 -60 34 -90 -7 -142 -33 -41 -54 -97 -42 -109 3 -4 32 -10 63 -14 68
-9 93 -33 93 -88 0 -26 -10 -48 -35 -80 -39 -49 -45 -93 -18 -123 20 -22 56
-23 74 -2 8 10 26 14 53 12 l40 -3 34 90 c58 152 44 257 -55 430 -36 62 -46
90 -48 130 -1 32 -12 70 -29 103 -15 30 -25 57 -21 60 3 3 33 -23 66 -57 88
-93 230 -302 316 -466 38 -72 66 -108 140 -181 118 -116 130 -142 144 -316 15
-194 27 -257 60 -322 16 -33 29 -72 29 -88 0 -36 -27 -161 -45 -209 -13 -35
-12 -37 45 -135 33 -54 71 -116 86 -137 l26 -38 -36 6 c-47 9 -56 -12 -26 -60
25 -40 23 -41 -27 -20 -46 20 -93 20 -93 0 0 -8 25 -33 55 -55 51 -38 74 -69
41 -57 -8 3 -31 9 -50 13 -28 5 -37 3 -42 -10 -14 -36 22 -62 143 -105 157
-55 150 -50 135 -103 -7 -24 -25 -83 -38 -133 -17 -59 -35 -102 -55 -125 -16
-19 -61 -78 -99 -132 -90 -122 -196 -237 -235 -253 -32 -13 -101 -8 -183 15
-30 8 -53 8 -72 1 -65 -22 -53 28 25 105 l65 65 0 64 c0 60 -2 65 -25 71 -43
11 -49 30 -17 53 16 11 41 25 55 30 23 9 24 14 20 55 -7 59 11 102 48 115 16
5 29 14 29 19 0 15 -66 70 -143 120 -85 54 -110 91 -104 151 4 35 14 52 55 95
27 28 55 61 61 73 15 29 14 97 -2 158 -10 38 -12 87 -5 205 l8 154 -35 102
c-40 116 -42 141 -16 193 34 65 136 196 190 241 85 72 63 106 -65 94 -95 -9
-115 -24 -150 -117 -24 -64 -37 -82 -115 -157 -49 -47 -89 -91 -89 -98 0 -6
16 -29 35 -51 19 -21 35 -46 35 -55 0 -21 -39 -36 -96 -36 -32 0 -46 -5 -51
-17 -7 -18 3 -36 63 -114 79 -104 97 -171 49 -183 -33 -9 -32 -27 6 -55 87
-65 95 -193 13 -227 -48 -20 -247 -10 -389 19 -80 16 -140 20 -297 21 -108 1
-199 4 -203 8 -4 3 -1 16 5 28 6 12 9 25 5 28 -4 4 -68 10 -143 13 -161 8
-206 20 -322 90 -124 74 -138 78 -153 37 -14 -38 -125 -6 -182 52 -47 48 -48
47 70 86 44 15 97 35 117 46 37 18 39 18 95 -2 32 -11 71 -20 88 -20 16 0 49
-9 73 -20 24 -11 81 -24 127 -30 67 -8 100 -19 157 -50 118 -63 229 -72 354
-30 161 56 219 154 179 308 -18 70 -16 103 8 136 13 17 18 18 45 7 44 -18 68
-49 89 -110 19 -58 40 -78 68 -67 28 10 13 88 -36 190 -45 94 -45 97 -23 274
6 45 5 52 -11 52 -9 0 -52 -29 -95 -65 -90 -75 -152 -105 -220 -105 -27 0 -61
-5 -77 -11 -15 -6 -91 -24 -168 -41 -119 -26 -170 -31 -340 -37 -235 -7 -233
-7 -339 -125 -129 -144 -259 -206 -476 -225 -239 -22 -316 -33 -445 -66 -172
-44 -206 -57 -297 -112 -78 -47 -92 -62 -82 -88 12 -31 43 -26 127 23 47 27
112 56 144 66 32 9 81 23 108 31 84 24 204 38 335 38 134 0 180 -11 230 -57
14 -12 39 -31 55 -40 17 -10 42 -29 56 -43 14 -13 67 -42 117 -63 141 -61 153
-69 372 -265 94 -84 308 -318 357 -390 22 -33 58 -94 79 -135 37 -72 38 -79
38 -170 0 -52 -3 -106 -7 -120 l-6 -25 -119 3 c-100 3 -134 0 -225 -22 -120
-29 -141 -38 -246 -109 -129 -87 -145 -91 -296 -81 -183 12 -262 8 -405 -21
-330 -66 -353 -69 -517 -57 -120 8 -122 9 -172 47 -70 54 -131 138 -131 182 0
37 57 131 108 178 22 20 25 28 16 42 -14 23 -74 35 -157 31 -37 -2 -67 0 -67
3 0 12 36 37 70 48 19 6 70 15 114 21 149 19 214 73 300 252 30 62 65 125 80
141 23 25 24 27 5 27 -12 0 -32 -18 -52 -47 -53 -78 -105 -130 -152 -152 -56
-26 -76 -26 -178 0 -64 16 -89 18 -121 11 -23 -6 -114 -20 -202 -33 -157 -22
-162 -23 -189 -5 l-28 18 5 127 c5 101 11 142 33 206 72 215 212 415 355 509
25 16 62 40 82 54 21 13 56 49 79 78 46 60 109 114 132 114 8 0 20 7 27 15 23
28 4 42 -65 48 -37 4 -78 13 -89 21 -24 15 -46 75 -46 122 0 49 -36 88 -104
112 -33 12 -70 22 -82 22 -50 0 -58 51 -17 116 38 59 50 62 63 14 13 -47 38
-66 100 -76 68 -10 85 -22 241 -161 70 -63 99 -71 99 -31 0 12 -9 35 -20 53
-52 84 -39 211 35 352 24 46 48 105 55 132 10 44 22 59 105 135 173 159 326
225 430 186 27 -10 27 -11 10 -36 -9 -15 -32 -40 -51 -56 -18 -16 -49 -51 -69
-78 -39 -54 -55 -62 -174 -86 -68 -14 -90 -24 -115 -49 -33 -33 -100 -115 -94
-115 2 0 47 23 101 50 101 52 177 67 177 36 0 -26 -56 -74 -130 -111 -89 -45
-114 -64 -178 -142 -83 -99 -91 -131 -26 -99 20 9 39 15 42 12 5 -6 5 -39 0
-91 -4 -43 34 -48 58 -8 45 73 88 133 95 133 13 0 21 -42 17 -96 -3 -44 -1
-49 19 -52 24 -4 28 3 70 113 10 28 23 50 28 50 6 0 15 -46 21 -103 12 -108
20 -127 47 -116 14 5 17 21 17 84 0 114 37 153 108 116 15 -8 36 -23 46 -35
22 -24 44 -27 52 -7 8 21 -64 135 -128 202 -49 51 -58 66 -58 97 0 47 13 53
52 25 26 -18 43 -22 89 -20 48 3 61 -1 86 -22 29 -25 53 -81 53 -127 0 -13 4
-30 9 -38 21 -32 50 142 32 186 -15 36 -34 48 -113 68 -93 25 -128 41 -128 62
0 28 64 117 112 156 24 19 77 50 118 69 41 20 91 52 109 72 45 47 71 46 125
-4 24 -22 51 -40 60 -40 10 0 36 -13 59 -29 108 -74 162 -82 250 -38 63 32 99
35 273 22 61 -4 124 -5 139 -1 27 7 27 7 9 28 -21 22 -238 134 -319 163 -27
10 -61 28 -73 39 -28 24 -77 104 -69 112 9 9 151 -37 172 -56 37 -33 84 -50
138 -50 124 0 252 -61 358 -171 81 -84 102 -92 114 -40 10 46 -24 165 -76 267
-27 52 -49 97 -49 100 0 2 29 -11 65 -28 36 -18 65 -36 65 -41z m-5084 -174
c26 -38 47 -74 47 -81 0 -7 -10 -34 -23 -62 -25 -52 -31 -56 -160 -76 -45 -7
-44 -8 -29 34 9 25 19 34 51 43 22 6 52 15 65 20 l25 9 -31 54 c-29 53 -30 56
-16 90 9 20 17 36 19 36 3 0 26 -30 52 -67z m438 32 c81 -34 135 -111 136
-193 0 -39 2 -42 23 -37 46 11 292 44 296 40 2 -3 -11 -38 -29 -79 -37 -85
-25 -79 -185 -96 -155 -17 -152 -15 -175 -68 -11 -25 -19 -51 -16 -57 2 -6 37
-24 77 -40 41 -16 93 -37 116 -47 l42 -18 -31 -71 c-17 -38 -36 -68 -42 -66
-34 13 -671 271 -674 272 -9 7 158 363 186 396 71 83 174 106 276 64z m6523
-270 c29 -19 77 -44 108 -56 85 -32 159 -87 247 -185 75 -84 188 -234 237
-316 l22 -37 -46 16 c-25 8 -48 13 -51 10 -3 -3 17 -36 44 -74 63 -86 161
-246 174 -285 8 -23 7 -33 -8 -49 -15 -17 -16 -24 -5 -57 27 -83 81 -287 81
-304 0 -24 -32 -23 -55 2 -26 29 -45 25 -45 -8 0 -16 18 -91 40 -166 53 -183
53 -206 -5 -146 -16 17 -37 30 -47 30 -23 0 -22 -6 54 -219 33 -91 62 -190 65
-218 5 -49 4 -53 -15 -53 -11 0 -44 19 -72 43 -73 59 -90 68 -112 56 -27 -14
-23 -53 21 -191 57 -179 79 -232 116 -288 39 -58 31 -78 -24 -59 -17 6 -38 8
-46 5 -23 -8 -10 -86 36 -229 41 -124 48 -178 26 -199 -11 -10 -10 -29 5 -113
21 -113 18 -136 -19 -173 -24 -24 -25 -28 -14 -66 30 -106 59 -226 66 -273 6
-46 5 -53 -10 -53 -10 0 -37 18 -61 40 -59 54 -88 67 -110 49 -17 -14 -17 -19
2 -161 l7 -47 -39 -7 c-71 -11 -108 -35 -118 -77 -9 -35 -12 -37 -39 -31 -26
5 -29 4 -23 -11 16 -42 23 -146 15 -225 -4 -47 -8 -89 -8 -93 -1 -5 -13 1 -27
12 -39 30 -54 27 -54 -12 0 -32 -28 -128 -47 -162 -7 -11 -19 9 -47 77 -60
149 -150 254 -263 312 -50 25 -59 20 -91 -47 -49 -103 -81 -112 -109 -31 -20
59 -41 73 -119 85 -38 6 -118 27 -179 47 -100 33 -202 48 -219 31 -3 -3 -12
-36 -20 -73 -7 -37 -16 -70 -20 -73 -13 -14 -47 16 -88 77 -27 41 -60 76 -90
95 -26 17 -46 35 -44 40 1 6 45 12 97 15 52 3 103 11 114 17 12 6 43 44 70 84
28 39 66 89 86 110 49 52 78 51 160 -3 62 -41 67 -43 143 -43 l79 0 31 60 c17
33 36 59 41 59 6 -1 23 -42 39 -90 l29 -89 15 35 c25 58 72 222 72 249 1 69
39 64 101 -12 66 -81 112 -127 126 -127 22 0 15 42 -33 197 -66 216 -66 198 0
196 47 -1 56 1 56 16 0 9 -31 85 -70 168 -38 83 -75 173 -81 201 -11 46 -10
58 14 129 34 101 36 122 42 474 4 255 3 302 -11 334 -8 21 -13 49 -9 62 7 29
49 46 92 38 18 -3 33 -2 33 3 0 5 -11 36 -25 70 -14 34 -25 71 -25 82 0 37 48
21 112 -38 24 -22 29 -23 44 -11 23 19 14 118 -21 229 -25 76 -34 91 -89 145
-140 138 -296 343 -296 390 0 33 31 17 133 -67 32 -26 62 -48 66 -48 5 0 -20
65 -55 144 -58 131 -73 193 -40 167 6 -4 21 -12 34 -16 23 -7 23 -6 17 52 -8
70 5 110 40 123 14 5 25 15 25 22 0 6 -31 43 -70 80 -105 102 -90 130 50 93
30 -8 56 -13 58 -11 1 2 -30 37 -70 78 -40 41 -92 95 -115 120 -33 36 -61 53
-135 82 -51 20 -99 40 -106 44 -12 8 139 58 183 61 11 0 44 -15 72 -34z
m-4057 -77 c0 -2 -7 -25 -15 -52 -8 -27 -15 -76 -15 -109 0 -55 -5 -69 -52
-149 -58 -96 -80 -109 -97 -55 -26 81 -19 130 33 250 7 14 5 16 -10 11 -11 -4
-32 -17 -49 -29 -30 -22 -40 -50 -61 -167 -3 -21 -8 -38 -11 -38 -3 0 -18 10
-35 21 -27 19 -29 25 -23 58 12 62 71 178 101 197 41 27 153 63 197 64 20 0
37 -1 37 -2z m-2824 -411 l20 -61 -40 -31 c-106 -79 -116 -235 -22 -329 94
-95 249 -102 347 -17 55 46 79 100 79 177 0 77 -15 123 -43 128 -12 3 -34 7
-48 10 -30 7 -29 10 -50 -113 l-13 -73 -60 7 c-33 3 -63 8 -66 10 -6 4 48 335
56 343 1 2 64 -6 139 -19 131 -21 137 -24 161 -55 47 -61 66 -138 62 -244 -3
-81 -8 -105 -35 -162 -42 -89 -100 -151 -182 -191 -61 -30 -73 -32 -166 -32
-91 0 -106 3 -166 31 -88 42 -140 90 -177 167 -69 141 -48 321 51 433 34 40
117 97 126 88 3 -3 15 -33 27 -67z m4232 -331 c48 -25 77 -64 76 -104 0 -50
-28 -104 -64 -125 -103 -61 -300 0 -300 92 0 39 59 107 115 132 48 22 135 24
173 5z m-1895 -111 c58 -17 107 -60 107 -94 0 -42 -83 -101 -144 -101 -51 0
-103 31 -112 65 -9 35 1 153 15 189 l12 29 32 -36 c23 -25 50 -40 90 -52z
m-2397 -349 c178 -101 227 -125 250 -122 16 3 84 7 152 10 l122 6 0 -79 0 -78
-150 -7 -150 -6 -206 -151 c-155 -113 -209 -147 -215 -137 -5 7 -9 45 -9 85
l0 72 140 97 c77 54 140 100 140 103 0 3 -67 42 -149 86 -100 53 -152 87 -155
100 -9 30 -7 157 2 152 4 -2 106 -61 228 -131z m2254 -7 c0 -6 -27 -47 -61
-91 -68 -91 -133 -213 -161 -303 -41 -133 -32 -443 15 -545 25 -52 74 -102
244 -250 100 -86 124 -113 137 -149 9 -24 24 -53 33 -64 18 -19 17 -19 -72
-12 -99 7 -315 50 -355 70 -56 29 -100 103 -100 171 0 19 -13 66 -30 104 -37
85 -54 161 -47 214 3 23 0 66 -8 96 -8 30 -24 103 -35 162 -26 135 -21 153 84
275 50 58 87 112 102 149 13 32 41 75 62 96 53 54 192 109 192 77z m-2270
-739 c13 -47 26 -88 29 -92 4 -4 135 26 291 67 156 41 287 75 290 75 6 0 52
-142 47 -146 -1 -1 -126 -34 -276 -74 -151 -40 -282 -75 -292 -79 -15 -5 -13
-15 12 -105 16 -55 26 -102 23 -105 -3 -3 -32 -13 -65 -22 l-59 -16 -11 41
c-6 23 -42 151 -80 285 -39 134 -69 244 -67 246 2 1 30 9 63 17 42 10 62 11
66 4 3 -6 16 -49 29 -96z m4551 -666 c11 -9 19 -28 19 -41 0 -40 27 -79 80
-117 95 -68 101 -140 29 -338 -89 -247 -234 -495 -359 -617 -94 -92 -115 -101
-215 -94 l-80 6 41 18 c23 9 44 25 48 34 17 44 -29 234 -73 300 -21 31 -33 40
-56 40 -31 0 -35 -8 -84 -160 -13 -38 -32 -85 -43 -104 l-21 -33 -34 36 c-40
42 -51 44 -88 14 -25 -19 -28 -20 -37 -5 -11 21 -36 22 -58 2 -14 -13 -22 -14
-44 -4 -23 11 -29 9 -51 -11 -43 -40 -67 -12 -41 50 10 26 -10 42 -75 59 -49
13 -67 22 -78 43 -17 30 -22 11 68 268 45 132 49 157 50 338 1 77 5 131 10
128 5 -4 60 -85 122 -181 61 -97 121 -181 132 -187 17 -9 24 -7 39 12 25 30
24 119 -3 283 -11 71 -19 131 -17 133 3 2 36 -3 74 -11 148 -31 219 -17 353
74 69 47 93 57 176 77 77 18 190 11 216 -12z m-3563 -116 c23 -34 40 -63 39
-64 -1 -1 -143 -87 -315 -192 l-313 -191 -36 56 c-20 31 -36 62 -37 69 -1 12
586 381 610 383 6 1 30 -27 52 -61z m360 -460 c-3 -6 -535 -439 -558 -453 -4
-3 -30 22 -58 54 l-51 58 229 184 c126 101 229 188 230 193 0 5 -39 54 -88
110 -48 55 -93 108 -100 117 -11 15 -6 22 39 58 l51 40 154 -176 c85 -98 153
-181 152 -185z m-1156 97 c90 -26 97 -30 118 -67 12 -21 19 -38 17 -38 -3 0
-49 9 -103 20 -103 21 -109 25 -149 93 -17 29 -17 30 1 25 10 -3 62 -18 116
-33z m1293 -202 l47 -42 -83 -90 c-188 -202 -414 -439 -419 -440 -3 0 -31 23
-62 52 l-57 52 250 263 c170 177 255 260 263 255 7 -5 34 -27 61 -50z m196
-175 c19 -6 118 -65 222 -130 l187 -119 -28 -42 c-194 -284 -366 -534 -376
-544 -8 -8 -55 17 -191 104 -99 63 -191 125 -204 136 -31 29 -61 94 -61 135 0
101 98 185 200 170 l29 -4 -18 30 c-55 89 -23 198 74 257 35 22 114 25 166 7z
m-745 -403 l39 -30 -60 -6 c-139 -15 -156 -13 -205 31 l-45 41 116 -3 c111 -3
117 -4 155 -33z"/>
<path d="M4282 8133 l-43 -4 6 -67 c3 -37 9 -80 12 -96 l5 -28 97 7 c106 7
148 24 169 68 17 34 1 89 -31 112 -21 15 -103 18 -215 8z"/>
<path d="M3030 7770 c-21 -6 -189 -87 -198 -95 -5 -5 56 -123 67 -130 12 -7
202 87 221 110 46 55 -18 137 -90 115z"/>
<path d="M3180 7520 c-35 -10 -210 -99 -210 -106 0 -5 66 -129 76 -142 4 -7
200 97 222 117 59 57 -7 156 -88 131z"/>
<path d="M5880 5982 c0 -11 -9 -27 -20 -37 -27 -24 -25 -58 6 -110 20 -35 23
-48 15 -64 -17 -31 -13 -56 13 -80 35 -33 50 -74 37 -99 -16 -29 -14 -32 17
-32 75 1 142 61 142 128 0 49 -36 119 -68 130 -23 8 -31 20 -45 69 -9 32 -26
71 -37 86 -25 31 -60 36 -60 9z"/>
<path d="M5231 5904 c-28 -15 -60 -38 -69 -52 -9 -14 -40 -36 -70 -49 -41 -18
-56 -31 -68 -58 -20 -49 -18 -145 6 -207 34 -91 28 -120 -45 -223 -36 -49 -65
-95 -65 -102 0 -30 22 -18 71 41 92 109 222 154 353 121 66 -17 68 -16 184 9
202 46 248 63 298 110 30 29 44 51 44 69 0 31 -26 59 -49 53 -78 -22 -154 -13
-183 21 -7 9 -13 42 -13 79 0 78 -13 95 -54 71 -16 -9 -36 -17 -44 -17 -29 0
-64 39 -70 78 -10 62 -37 82 -110 82 -48 0 -76 -6 -116 -26z"/>
<path d="M3756 5238 c-21 -30 -20 -54 4 -78 27 -27 85 -27 100 -1 16 30 12 59
-10 81 -27 27 -75 26 -94 -2z"/>
<path d="M4906 4170 c-133 -23 -194 -44 -351 -122 -251 -126 -395 -253 -395
-348 0 -51 45 -32 247 107 51 35 94 63 97 63 3 0 3 -13 0 -30 -11 -51 31 -39
114 32 77 66 308 159 466 187 33 6 90 11 127 11 49 0 73 5 89 18 l21 17 -23
21 c-59 54 -227 73 -392 44z"/>
<path d="M5340 3898 c-14 -5 -133 -45 -265 -87 -132 -43 -299 -103 -371 -134
-149 -64 -263 -99 -397 -123 -267 -47 -272 -48 -275 -68 -6 -27 15 -36 85 -36
64 0 324 24 424 40 32 5 144 46 266 99 117 50 214 91 217 91 4 0 25 9 49 19
62 29 306 127 350 140 25 9 37 18 37 31 0 36 -65 51 -120 28z"/>
<path d="M1355 6070 c-33 -13 -61 -51 -93 -125 -17 -38 -32 -76 -34 -83 -2 -8
28 -26 81 -48 47 -19 88 -34 91 -34 4 0 24 36 44 81 53 118 47 177 -19 205
-39 16 -42 16 -70 4z"/>
<path d="M5254 5093 c-12 -2 -29 -12 -37 -21 -48 -54 -13 -127 61 -127 52 0
82 27 82 70 0 55 -46 89 -106 78z"/>
<path d="M2646 2237 c-32 -32 -35 -84 -7 -114 17 -18 192 -133 203 -133 3 0
25 31 50 68 l46 68 -99 63 c-118 75 -156 84 -193 48z"/>
<path d="M2497 1989 c-24 -14 -39 -54 -31 -86 9 -36 199 -160 219 -143 15 12
75 103 75 113 0 7 -122 87 -169 112 -35 17 -68 19 -94 4z"/>
</g>
</svg>
